<svg data-v-fde0c5aa="" xmlns="http://www.w3.org/2000/svg" viewBox="0 0 300 300" class="iconLeft"><!----><defs data-v-fde0c5aa=""><!----></defs><rect data-v-fde0c5aa="" fill="transparent" x="0" y="0" width="300px" height="300px" class="logo-background-square"></rect><defs data-v-fde0c5aa=""><!----></defs><g data-v-fde0c5aa="" id="10f2e230-247b-4fa4-aa44-ecda1243cab8" fill="#000000" transform="matrix(1.8732641635592542,0,0,1.8732641635592542,77.45040728348171,126.01285270719085)"><path d="M0.70 17.18L0.70 8.43L3.50 8.43L3.50 14.87L6.16 14.87L6.16 17.18L0.70 17.18ZM11.59 17.18L11.24 15.79L8.71 15.79L8.36 17.18L5.56 17.18L7.80 8.43L12.15 8.43L14.39 17.18L11.59 17.18ZM9.24 13.76L10.71 13.76L10.04 11.12L9.91 11.12L9.24 13.76ZM15.23 17.18L15.23 8.43L18.00 8.43L19.91 11.49L19.91 11.49Q20.26 12.08 20.26 12.49L20.26 12.49L20.34 12.49L20.34 8.43L23.14 8.43L23.14 17.18L20.37 17.18L18.47 14.11L18.47 14.11Q18.12 13.52 18.12 13.12L18.12 13.12L18.03 13.12L18.03 17.18L15.23 17.18ZM24.61 8.43L28.52 8.43L28.52 8.43Q30.17 8.43 31.05 8.81L31.05 8.81L31.05 8.81Q31.93 9.20 32.30 10.13L32.30 10.13L32.30 10.13Q32.66 11.06 32.66 12.81L32.66 12.81L32.66 12.81Q32.66 14.56 32.30 15.48L32.30 15.48L32.30 15.48Q31.93 16.41 31.05 16.79L31.05 16.79L31.05 16.79Q30.17 17.18 28.52 17.18L28.52 17.18L24.61 17.18L24.61 8.43ZM27.41 10.61L27.41 14.99L28.56 14.99L28.56 14.99Q29.18 14.99 29.41 14.80L29.41 14.80L29.41 14.80Q29.65 14.62 29.65 14.11L29.65 14.11L29.65 11.49L29.65 11.49Q29.65 10.99 29.41 10.80L29.41 10.80L29.41 10.80Q29.18 10.61 28.56 10.61L28.56 10.61L27.41 10.61ZM33.78 8.43L36.58 8.43L36.58 17.18L33.78 17.18L33.78 8.43ZM38.05 17.18L38.05 8.43L40.82 8.43L42.73 11.49L42.73 11.49Q43.08 12.08 43.08 12.49L43.08 12.49L43.16 12.49L43.16 8.43L45.96 8.43L45.96 17.18L43.19 17.18L41.29 14.11L41.29 14.11Q40.94 13.52 40.94 13.12L40.94 13.12L40.85 13.12L40.85 17.18L38.05 17.18ZM51.06 11.94L54.43 11.94L54.43 16.76L54.43 16.76Q53.72 17.09 52.87 17.24L52.87 17.24L52.87 17.24Q52.02 17.39 50.85 17.39L50.85 17.39L50.85 17.39Q49.38 17.39 48.59 16.98L48.59 16.98L48.59 16.98Q47.81 16.58 47.48 15.60L47.48 15.60L47.48 15.60Q47.15 14.63 47.15 12.81L47.15 12.81L47.15 12.81Q47.15 10.99 47.52 10.02L47.52 10.02L47.52 10.02Q47.88 9.04 48.76 8.63L48.76 8.63L48.76 8.63Q49.64 8.22 51.27 8.22L51.27 8.22L51.27 8.22Q51.98 8.22 52.82 8.33L52.82 8.33L52.82 8.33Q53.65 8.44 54.01 8.58L54.01 8.58L53.66 10.79L53.66 10.79Q53.16 10.68 52.54 10.61L52.54 10.61L52.54 10.61Q51.91 10.53 51.48 10.53L51.48 10.53L51.48 10.53Q50.72 10.53 50.44 10.74L50.44 10.74L50.44 10.74Q50.16 10.95 50.16 11.51L50.16 11.51L50.16 15.13L51.77 15.13L51.77 13.97L51.06 13.97L51.06 11.94ZM61.08 15.06L61.08 17.18L58.28 17.18L58.28 8.43L62.27 8.43L62.27 8.43Q64.06 8.43 64.85 9.18L64.85 9.18L64.85 9.18Q65.63 9.94 65.63 11.66L65.63 11.66L65.63 11.66Q65.63 13.40 64.86 14.23L64.86 14.23L64.86 14.23Q64.09 15.06 62.48 15.06L62.48 15.06L61.08 15.06ZM61.08 13.03L62.15 13.03L62.15 13.03Q62.45 13.03 62.57 12.91L62.57 12.91L62.57 12.91Q62.69 12.78 62.69 12.45L62.69 12.45L62.69 11.33L62.69 11.33Q62.69 10.99 62.57 10.86L62.57 10.86L62.57 10.86Q62.45 10.74 62.15 10.74L62.15 10.74L61.08 10.74L61.08 13.03ZM71.53 17.18L71.18 15.79L68.64 15.79L68.29 17.18L65.49 17.18L67.73 8.43L72.09 8.43L74.33 17.18L71.53 17.18ZM69.17 13.76L70.64 13.76L69.97 11.12L69.85 11.12L69.17 13.76ZM78.72 11.94L82.10 11.94L82.10 16.76L82.10 16.76Q81.38 17.09 80.54 17.24L80.54 17.24L80.54 17.24Q79.69 17.39 78.51 17.39L78.51 17.39L78.51 17.39Q77.04 17.39 76.26 16.98L76.26 16.98L76.26 16.98Q75.47 16.58 75.15 15.60L75.15 15.60L75.15 15.60Q74.82 14.63 74.82 12.81L74.82 12.81L74.82 12.81Q74.82 10.99 75.18 10.02L75.18 10.02L75.18 10.02Q75.54 9.04 76.43 8.63L76.43 8.63L76.43 8.63Q77.31 8.22 78.93 8.22L78.93 8.22L78.93 8.22Q79.65 8.22 80.48 8.33L80.48 8.33L80.48 8.33Q81.31 8.44 81.68 8.58L81.68 8.58L81.33 10.79L81.33 10.79Q80.82 10.68 80.20 10.61L80.20 10.61L80.20 10.61Q79.58 10.53 79.14 10.53L79.14 10.53L79.14 10.53Q78.39 10.53 78.11 10.74L78.11 10.74L78.11 10.74Q77.83 10.95 77.83 11.51L77.83 11.51L77.83 15.13L79.44 15.13L79.44 13.97L78.72 13.97L78.72 11.94ZM85.95 13.82L85.95 14.87L89.24 14.87L89.24 17.18L83.15 17.18L83.15 8.43L89.31 8.43L88.96 10.74L85.95 10.74L85.95 11.79L88.75 11.79L88.75 13.82L85.95 13.82ZM90.47 14.57L90.47 14.57Q91.87 15.02 93.31 15.02L93.31 15.02L93.31 15.02Q94.02 15.02 94.44 14.95L94.44 14.95L94.44 14.18L93.18 14.07L93.18 14.07Q92.09 13.97 91.44 13.67L91.44 13.67L91.44 13.67Q90.79 13.37 90.50 12.81L90.50 12.81L90.50 12.81Q90.20 12.25 90.20 11.35L90.20 11.35L90.20 11.35Q90.20 10.18 90.54 9.50L90.54 9.50L90.54 9.50Q90.87 8.82 91.62 8.52L91.62 8.52L91.62 8.52Q92.37 8.22 93.69 8.22L93.69 8.22L93.69 8.22Q95.41 8.22 96.98 8.64L96.98 8.64L96.63 10.88L96.63 10.88Q95.90 10.72 95.40 10.66L95.40 10.66L95.40 10.66Q94.89 10.60 94.36 10.60L94.36 10.60L94.36 10.60Q93.65 10.60 93.21 10.67L93.21 10.67L93.21 11.42L94.22 11.52L94.22 11.52Q95.93 11.69 96.69 12.37L96.69 12.37L96.69 12.37Q97.45 13.05 97.45 14.39L97.45 14.39L97.45 14.39Q97.45 15.95 96.56 16.67L96.56 16.67L96.56 16.67Q95.66 17.39 93.73 17.39L93.73 17.39L93.73 17.39Q91.74 17.39 90.08 16.88L90.08 16.88L90.47 14.57Z"></path></g><defs data-v-fde0c5aa=""><linearGradient data-v-fde0c5aa="" gradientTransform="rotate(25)" id="b10a0a2e-3c50-4504-8010-e45b53651c4a" x1="0%" y1="0%" x2="100%" y2="0%"><stop data-v-fde0c5aa="" offset="0%" stop-color="#87544E" stop-opacity="1"></stop><stop data-v-fde0c5aa="" offset="100%" stop-color="#87544E" stop-opacity="1"></stop></linearGradient></defs><g data-v-fde0c5aa="" id="9ee375ff-8569-4c0c-b45d-e863176c3825" stroke="none" fill="url(#b10a0a2e-3c50-4504-8010-e45b53651c4a)" transform="matrix(0.050721941150412855,0,0,0.050721941150412855,39.89855611769917,137.0151830654943)"><path d="M447.9 51.6H202.3c-7.8 0-14.1 6.3-14.1 14.1s6.3 14.1 14.1 14.1h245.6c7.8 0 14.1-6.3 14.1-14.1s-6.3-14.1-14.1-14.1zM148.7 51.6h-14.1c-7.8 0-14.1 6.3-14.1 14.1s6.3 14.1 14.1 14.1h14.1c7.8 0 14.1-6.3 14.1-14.1s-6.3-14.1-14.1-14.1zM78.2 51.6H64.1C56.3 51.6 50 58 50 65.8s6.3 14.1 14.1 14.1h14.1c7.8 0 14.1-6.3 14.1-14.1S86 51.6 78.2 51.6z"></path><path d="M467.7 2H44.3C21 2 2 21 2 44.3v423.3C2 491 21 510 44.3 510h423.3c23.3 0 42.3-19 42.3-42.3V44.3C510 21 491 2 467.7 2zM227 249.8c-5.7 23-9.2 48.2-10.1 75h-67.5c2.5-33.6 13.9-64.7 32-91.1 13.5 6.4 28.8 11.8 45.6 16.1zM199.6 211c17.9-19 39.6-34.2 64-44.4-11.4 15.4-21.1 34.4-28.7 56.1-12.7-3.3-24.6-7.2-35.3-11.7zm17.3 142c.9 26.3 4.4 51.6 10.2 74.9-16.8 4.4-32.3 9.8-45.9 16.1-18.3-26.8-29.4-58.1-31.8-91.1h67.5zm-1.6 128.8c-5.6-4.7-10.9-9.7-15.8-14.9 10.7-4.5 22.7-8.4 35.6-11.7 3.3 9.4 7 18.3 11.1 26.7h-30.9zm106.1 0H278c-5.7-9.8-10.8-20.7-15.2-32.5 18.5-3.2 38.3-5.1 58.5-5.8v38.3zm0-66.6c-23.3.7-45.8 2.9-66.9 6.7-5.3-21.3-8.5-44.7-9.4-68.9h76.3v62.2zm0-90.4h-76.3c.9-24.5 4.3-47.8 9.5-69 21 3.8 43.5 6.1 66.7 6.7v62.3zm0-90.4c-20.2-.6-40-2.6-58.5-5.8 14-38.5 34.9-66 58.5-74v79.8zM393 481.8h-43.4v-38.3c20.2.6 40 2.6 58.5 5.8-4.3 11.8-9.4 22.7-15.1 32.5zm-43.4-66.6V353h76.3c-.9 24.3-4.1 47.6-9.4 69-21.1-3.8-43.6-6.1-66.9-6.8zm58.5-186.6c-18.5 3.2-38.3 5.1-58.5 5.8v-79.8c23.6 8 44.5 35.5 58.5 74zm-1-62.2c24.1 10 46 25.1 64.3 44.6-10.7 4.5-22.6 8.4-35.5 11.7-7.6-21.9-17.4-40.9-28.8-56.3zm9.2 89.5c5.3 21.2 8.6 44.5 9.5 69h-76.3v-62.2c23.3-.8 45.8-3.1 66.8-6.8zm51.4 225.9h-43c4.1-8.4 7.8-17.3 11.1-26.6 17 4.3 32.4 9.8 45.5 16.2-1.7 5.9-7.1 10.4-13.6 10.4zm14.1-41.2c-11.6-4.9-24.3-9.1-38-12.7 5.8-23.4 9.2-48.7 10.2-74.9h27.8v87.6zm0-115.8h-27.7c-.9-26.7-4.4-52-10.1-75 13.6-3.5 26.2-7.8 37.8-12.6v87.6zm0-143.2c-39.5-36.9-91.2-57.6-146.3-57.6-118.5 0-215 96.4-215 215 0 53.4 19.6 103.8 54.4 142.9H44.3c-7.8 0-14.1-6.3-14.1-14.1V226.3H64c7.8 0 14.1-6.3 14.1-14.1s-6.3-14.1-14.1-14.1H30.2v-30.5H100c7.8 0 14.1-6.3 14.1-14.1s-6.3-14.1-14.1-14.1H30.2V44.3c0-7.8 6.3-14.1 14.1-14.1h423.3c7.8 0 14.1 6.3 14.1 14.1v137.3z"></path></g><!----></svg>