<svg data-v-423bf9ae="" xmlns="http://www.w3.org/2000/svg" viewBox="0 0 633.042590558249 60" class="font"><!----><!----><!----><g data-v-423bf9ae="" id="f825f4c0-c5f4-40de-b0e5-ef2dc5e63f17" fill="white" transform="matrix(6.54307587140309,0,0,6.54307587140309,-4.580159260528035,-53.78408588696031)"><path d="M0.70 17.18L0.70 8.43L3.50 8.43L3.50 14.87L6.16 14.87L6.16 17.18L0.70 17.18ZM11.59 17.18L11.24 15.79L8.71 15.79L8.36 17.18L5.56 17.18L7.80 8.43L12.15 8.43L14.39 17.18L11.59 17.18ZM9.24 13.76L10.71 13.76L10.04 11.12L9.91 11.12L9.24 13.76ZM15.23 17.18L15.23 8.43L18.00 8.43L19.91 11.49L19.91 11.49Q20.26 12.08 20.26 12.49L20.26 12.49L20.34 12.49L20.34 8.43L23.14 8.43L23.14 17.18L20.37 17.18L18.47 14.11L18.47 14.11Q18.12 13.52 18.12 13.12L18.12 13.12L18.03 13.12L18.03 17.18L15.23 17.18ZM24.61 8.43L28.52 8.43L28.52 8.43Q30.17 8.43 31.05 8.81L31.05 8.81L31.05 8.81Q31.93 9.20 32.30 10.13L32.30 10.13L32.30 10.13Q32.66 11.06 32.66 12.81L32.66 12.81L32.66 12.81Q32.66 14.56 32.30 15.48L32.30 15.48L32.30 15.48Q31.93 16.41 31.05 16.79L31.05 16.79L31.05 16.79Q30.17 17.18 28.52 17.18L28.52 17.18L24.61 17.18L24.61 8.43ZM27.41 10.61L27.41 14.99L28.56 14.99L28.56 14.99Q29.18 14.99 29.41 14.80L29.41 14.80L29.41 14.80Q29.65 14.62 29.65 14.11L29.65 14.11L29.65 11.49L29.65 11.49Q29.65 10.99 29.41 10.80L29.41 10.80L29.41 10.80Q29.18 10.61 28.56 10.61L28.56 10.61L27.41 10.61ZM33.78 8.43L36.58 8.43L36.58 17.18L33.78 17.18L33.78 8.43ZM38.05 17.18L38.05 8.43L40.82 8.43L42.73 11.49L42.73 11.49Q43.08 12.08 43.08 12.49L43.08 12.49L43.16 12.49L43.16 8.43L45.96 8.43L45.96 17.18L43.19 17.18L41.29 14.11L41.29 14.11Q40.94 13.52 40.94 13.12L40.94 13.12L40.85 13.12L40.85 17.18L38.05 17.18ZM51.06 11.94L54.43 11.94L54.43 16.76L54.43 16.76Q53.72 17.09 52.87 17.24L52.87 17.24L52.87 17.24Q52.02 17.39 50.85 17.39L50.85 17.39L50.85 17.39Q49.38 17.39 48.59 16.98L48.59 16.98L48.59 16.98Q47.81 16.58 47.48 15.60L47.48 15.60L47.48 15.60Q47.15 14.63 47.15 12.81L47.15 12.81L47.15 12.81Q47.15 10.99 47.52 10.02L47.52 10.02L47.52 10.02Q47.88 9.04 48.76 8.63L48.76 8.63L48.76 8.63Q49.64 8.22 51.27 8.22L51.27 8.22L51.27 8.22Q51.98 8.22 52.82 8.33L52.82 8.33L52.82 8.33Q53.65 8.44 54.01 8.58L54.01 8.58L53.66 10.79L53.66 10.79Q53.16 10.68 52.54 10.61L52.54 10.61L52.54 10.61Q51.91 10.53 51.48 10.53L51.48 10.53L51.48 10.53Q50.72 10.53 50.44 10.74L50.44 10.74L50.44 10.74Q50.16 10.95 50.16 11.51L50.16 11.51L50.16 15.13L51.77 15.13L51.77 13.97L51.06 13.97L51.06 11.94ZM61.08 15.06L61.08 17.18L58.28 17.18L58.28 8.43L62.27 8.43L62.27 8.43Q64.06 8.43 64.85 9.18L64.85 9.18L64.85 9.18Q65.63 9.94 65.63 11.66L65.63 11.66L65.63 11.66Q65.63 13.40 64.86 14.23L64.86 14.23L64.86 14.23Q64.09 15.06 62.48 15.06L62.48 15.06L61.08 15.06ZM61.08 13.03L62.15 13.03L62.15 13.03Q62.45 13.03 62.57 12.91L62.57 12.91L62.57 12.91Q62.69 12.78 62.69 12.45L62.69 12.45L62.69 11.33L62.69 11.33Q62.69 10.99 62.57 10.86L62.57 10.86L62.57 10.86Q62.45 10.74 62.15 10.74L62.15 10.74L61.08 10.74L61.08 13.03ZM71.53 17.18L71.18 15.79L68.64 15.79L68.29 17.18L65.49 17.18L67.73 8.43L72.09 8.43L74.33 17.18L71.53 17.18ZM69.17 13.76L70.64 13.76L69.97 11.12L69.85 11.12L69.17 13.76ZM78.72 11.94L82.10 11.94L82.10 16.76L82.10 16.76Q81.38 17.09 80.54 17.24L80.54 17.24L80.54 17.24Q79.69 17.39 78.51 17.39L78.51 17.39L78.51 17.39Q77.04 17.39 76.26 16.98L76.26 16.98L76.26 16.98Q75.47 16.58 75.15 15.60L75.15 15.60L75.15 15.60Q74.82 14.63 74.82 12.81L74.82 12.81L74.82 12.81Q74.82 10.99 75.18 10.02L75.18 10.02L75.18 10.02Q75.54 9.04 76.43 8.63L76.43 8.63L76.43 8.63Q77.31 8.22 78.93 8.22L78.93 8.22L78.93 8.22Q79.65 8.22 80.48 8.33L80.48 8.33L80.48 8.33Q81.31 8.44 81.68 8.58L81.68 8.58L81.33 10.79L81.33 10.79Q80.82 10.68 80.20 10.61L80.20 10.61L80.20 10.61Q79.58 10.53 79.14 10.53L79.14 10.53L79.14 10.53Q78.39 10.53 78.11 10.74L78.11 10.74L78.11 10.74Q77.83 10.95 77.83 11.51L77.83 11.51L77.83 15.13L79.44 15.13L79.44 13.97L78.72 13.97L78.72 11.94ZM85.95 13.82L85.95 14.87L89.24 14.87L89.24 17.18L83.15 17.18L83.15 8.43L89.31 8.43L88.96 10.74L85.95 10.74L85.95 11.79L88.75 11.79L88.75 13.82L85.95 13.82ZM90.47 14.57L90.47 14.57Q91.87 15.02 93.31 15.02L93.31 15.02L93.31 15.02Q94.02 15.02 94.44 14.95L94.44 14.95L94.44 14.18L93.18 14.07L93.18 14.07Q92.09 13.97 91.44 13.67L91.44 13.67L91.44 13.67Q90.79 13.37 90.50 12.81L90.50 12.81L90.50 12.81Q90.20 12.25 90.20 11.35L90.20 11.35L90.20 11.35Q90.20 10.18 90.54 9.50L90.54 9.50L90.54 9.50Q90.87 8.82 91.62 8.52L91.62 8.52L91.62 8.52Q92.37 8.22 93.69 8.22L93.69 8.22L93.69 8.22Q95.41 8.22 96.98 8.64L96.98 8.64L96.63 10.88L96.63 10.88Q95.90 10.72 95.40 10.66L95.40 10.66L95.40 10.66Q94.89 10.60 94.36 10.60L94.36 10.60L94.36 10.60Q93.65 10.60 93.21 10.67L93.21 10.67L93.21 11.42L94.22 11.52L94.22 11.52Q95.93 11.69 96.69 12.37L96.69 12.37L96.69 12.37Q97.45 13.05 97.45 14.39L97.45 14.39L97.45 14.39Q97.45 15.95 96.56 16.67L96.56 16.67L96.56 16.67Q95.66 17.39 93.73 17.39L93.73 17.39L93.73 17.39Q91.74 17.39 90.08 16.88L90.08 16.88L90.47 14.57Z"></path></g><!----><!----></svg>